# xmcd
#
# Track frame offsets:
#	150
#	4257
#	21457
#	46625
#	66122
#	85095
#	107305
#	122160
#	138505
#	151957
#	170867
#
# Disc length: 2348 seconds
#
# Revision: 0
# Processed by: cddbd v1.5.1PL0 Copyright (c) Steve Scherf et al.
# Submitted via: dBpowerAMP V4.0
#
DISCID=89092a0b
DTITLE=Paraná Blues - Maria fumaça
DYEAR=1900
DGENRE=blues-rock
TTITLE0=Maria fumaça
TTITLE1=Cigarrinho de palha
TTITLE2=Rosa purpurina
TTITLE3=Quero-quero
TTITLE4=Cabrilinda
TTITLE5=Casinha ribeirinha
TTITLE6=Coiote do mar
TTITLE7=Tributo a Leadbelly
TTITLE8=Madame Bovary
TTITLE9=Rock'n'Roll Blues
TTITLE10=Última estação
EXTD=
EXTT0=
EXTT1=
EXTT2=
EXTT3=
EXTT4=
EXTT5=
EXTT6=
EXTT7=
EXTT8=
EXTT9=
EXTT10=
PLAYORDER=
